# Blender v3.6.1 OBJ File: ''
# www.blender.org
mtllib untitled.mtl
o Cube.001
v -1.000000 0.500000 0.200000
v 0.000000 -0.500000 0.200000
v 1.000000 0.500000 0.200000
v 1.000000 0.500000 -0.200000
v -1.000000 0.500000 -0.200000
v 0.000000 -0.500000 -0.200000
v 0.080000 -0.301293 -0.080000
v 0.080000 -0.301293 0.080000
v 0.080000 -1.000000 0.080000
v 0.080000 -1.000000 -0.080000
v -0.080000 -1.000000 0.080000
v -0.080000 -1.000000 -0.080000
v -0.080000 -0.301293 0.080000
v -0.080000 -0.301293 -0.080000
v 0.080000 1.000000 -0.080000
v 0.080000 1.000000 0.080000
v 0.080000 0.458708 0.080000
v 0.080000 0.458707 -0.080000
v -0.080000 0.458708 0.080000
v -0.080000 0.458708 -0.080000
v -0.080000 1.000000 0.080000
v -0.080000 1.000000 -0.080000
v 0.120000 -0.380000 -0.120000
v 0.120000 -0.380000 0.120000
v 0.120000 -0.600000 0.120000
v 0.120000 -0.600000 -0.120000
v -0.120000 -0.600000 0.120000
v -0.120000 -0.600000 -0.120000
v -0.120000 -0.380000 0.120000
v -0.120000 -0.380000 -0.120000
vt 0.231045 0.653670
vt 0.149369 0.967681
vt 0.066024 0.654004
vt 0.318449 0.659229
vt 0.000582 0.458241
vt 0.001366 0.660598
vt 0.070333 0.663754
vt 0.227057 0.664344
vt 0.149571 0.969820
vt 0.000864 0.661286
vt 0.320766 0.456779
vt 0.317652 0.660198
vt 0.318296 0.659108
vt 0.002764 0.462032
vt 0.000743 0.658976
vt 0.625000 0.497505
vt 0.375000 0.747505
vt 0.375000 0.497505
vt 0.495725 0.711866
vt 0.245725 0.961866
vt 0.245725 0.711866
vt 0.625000 0.500000
vt 0.375000 0.750000
vt 0.375000 0.500000
vt 0.625000 0.750000
vt 0.375000 1.000000
vt 0.471227 0.727267
vt 0.221227 0.977267
vt 0.221227 0.727267
vt 0.875000 0.500000
vt 0.375000 0.497505
vt 0.625000 0.747505
vt 0.375000 0.747505
vt 0.375000 0.500000
vt 0.625000 0.500000
vt 0.375000 0.750000
vt 0.481145 0.715177
vt 0.231145 0.965177
vt 0.231145 0.715177
vt 0.478031 0.719936
vt 0.228031 0.969936
vt 0.228031 0.719936
vt 0.875000 0.500000
vt 0.625000 0.750000
vt 0.317741 0.460176
vt 0.000813 0.658358
vt 0.000813 0.460176
vt 0.495393 0.712593
vt 0.245393 0.962593
vt 0.245393 0.712593
vt 0.318172 0.461908
vt -0.000714 0.657226
vt -0.000714 0.461908
vt 0.490764 0.732544
vt 0.240764 0.982544
vt 0.240764 0.732544
vt 0.317330 0.460914
vt 0.001941 0.659072
vt 0.001941 0.460914
vt 0.317379 0.460742
vt -0.000367 0.658376
vt -0.000367 0.460742
vt 0.318056 0.458789
vt 0.000769 0.456013
vt 0.318865 0.460042
vt 0.625000 0.747505
vt 0.495725 0.961866
vt 0.625000 1.000000
vt 0.471227 0.977267
vt 0.875000 0.750000
vt 0.625000 0.497505
vt 0.481145 0.965177
vt 0.478031 0.969936
vt 0.875000 0.750000
vt 0.317741 0.658358
vt 0.495393 0.962593
vt 0.318172 0.657226
vt 0.490764 0.982544
vt 0.317330 0.659072
vt 0.318141 0.658376
vn 0.0000 0.0000 1.0000
vn 0.0000 1.0000 -0.0000
vn 0.0000 -0.0000 -1.0000
vn -0.7071 -0.7071 0.0000
vn 0.7071 -0.7071 0.0000
vn 1.0000 -0.0000 0.0000
vn 0.0000 -1.0000 0.0000
vn -1.0000 -0.0000 0.0000
usemtl Material.001
s 1
f 1/1/1 2/2/1 3/3/1
f 3/4/2 5/5/2 1/6/2
f 5/7/3 4/8/3 6/9/3
f 6/10/4 1/11/4 5/12/4
f 2/13/5 4/14/5 3/15/5
f 8/16/6 10/17/6 7/18/6
f 9/19/7 12/20/7 10/21/7
f 11/22/8 14/23/8 12/24/8
f 13/25/2 7/26/2 14/23/2
f 12/27/3 7/28/3 10/29/3
f 9/30/1 13/25/1 11/22/1
f 15/31/6 17/32/6 18/33/6
f 17/32/7 20/34/7 18/33/7
f 19/35/8 22/36/8 20/34/8
f 21/37/2 15/38/2 22/39/2
f 20/40/3 15/41/3 18/42/3
f 17/43/1 21/44/1 19/35/1
f 24/45/6 26/46/6 23/47/6
f 25/48/7 28/49/7 26/50/7
f 27/51/8 30/52/8 28/53/8
f 29/54/2 23/55/2 30/56/2
f 28/57/3 23/58/3 26/59/3
f 25/60/1 29/61/1 27/62/1
f 3/4/2 4/63/2 5/5/2
f 6/10/4 2/64/4 1/11/4
f 2/13/5 6/65/5 4/14/5
f 8/16/6 9/66/6 10/17/6
f 9/19/7 11/67/7 12/20/7
f 11/22/8 13/25/8 14/23/8
f 13/25/2 8/68/2 7/26/2
f 12/27/3 14/69/3 7/28/3
f 9/30/1 8/70/1 13/25/1
f 15/31/6 16/71/6 17/32/6
f 17/32/7 19/35/7 20/34/7
f 19/35/8 21/44/8 22/36/8
f 21/37/2 16/72/2 15/38/2
f 20/40/3 22/73/3 15/41/3
f 17/43/1 16/74/1 21/44/1
f 24/45/6 25/75/6 26/46/6
f 25/48/7 27/76/7 28/49/7
f 27/51/8 29/77/8 30/52/8
f 29/54/2 24/78/2 23/55/2
f 28/57/3 30/79/3 23/58/3
f 25/60/1 24/80/1 29/61/1
